<svg xmlns="http://www.w3.org/2000/svg" viewBox="0 0 396.72 396.72"><defs><style>.cls-1{fill:#fff;}.cls-2{fill:#ed1c24;}</style></defs><g id="Layer_1" data-name="Layer 1"><circle class="cls-1" cx="198.37" cy="198.36" r="176.03"/><path class="cls-2" d="M499.6,301.64c-94.07,0-173.08,65.83-193.33,153.86a195.77,195.77,0,0,0-4.65,32.07q-.39,6.17-.39,12.44t.39,12.43c4.59,73.84,49.78,136.88,113.45,167a197.25,197.25,0,0,0,84.53,18.92C609,698.36,698,609.38,698,500S609,301.64,499.6,301.64Zm0,352.05A153.73,153.73,0,0,1,352.47,455.5c19.13-63.12,77.85-109.19,147.13-109.19,84.74,0,153.69,68.94,153.69,153.7S584.34,653.69,499.6,653.69Z" transform="translate(-301.23 -301.64)"/><circle class="cls-1" cx="198.6" cy="198.88" r="127.38"/><path class="cls-2" d="M499.83,647C419,647,353.31,581.31,353.31,500.52S419,354,499.83,354s146.52,65.73,146.52,146.52S580.62,647,499.83,647Zm0-254.76A108.24,108.24,0,1,0,608.07,500.52,108.37,108.37,0,0,0,499.83,392.28Z" transform="translate(-301.23 -301.64)"/><circle class="cls-1" cx="198.6" cy="198.88" r="75.18"/><path class="cls-2" d="M499.83,598a97.52,97.52,0,1,1,97.52-97.52A97.63,97.63,0,0,1,499.83,598Zm0-150.37a52.85,52.85,0,1,0,52.85,52.85A52.91,52.91,0,0,0,499.83,447.67Z" transform="translate(-301.23 -301.64)"/><circle class="cls-1" cx="198.6" cy="198.88" r="18.65"/><path class="cls-2" d="M499.83,526.35a25.83,25.83,0,1,1,25.83-25.83A25.86,25.86,0,0,1,499.83,526.35Zm0-37.3a11.47,11.47,0,1,0,11.47,11.47A11.48,11.48,0,0,0,499.83,489.05Z" transform="translate(-301.23 -301.64)"/></g></svg>