<svg xmlns="http://www.w3.org/2000/svg" viewBox="0 0 248.69 248.69"><defs><style>.cls-1,.cls-3,.cls-4,.cls-5{fill:#fff;}.cls-2{fill:#ed1c24;}.cls-3,.cls-4,.cls-5{stroke:#ed1c24;stroke-miterlimit:10;}.cls-3{stroke-width:24px;}.cls-4{stroke-width:28px;}.cls-5{stroke-width:9px;}</style></defs><g id="Layer_1" data-name="Layer 1"><circle class="cls-1" cx="124.35" cy="124.35" r="110.34"/><path class="cls-2" d="M491.62,497.75A124.56,124.56,0,0,0,370.43,594.2a123.24,123.24,0,0,0-2.92,20.1q-.24,3.87-.24,7.8t.24,7.79A124.35,124.35,0,1,0,491.62,497.75Zm0,220.69A96.35,96.35,0,1,1,588,622.1,95.73,95.73,0,0,1,491.62,718.44Z" transform="translate(-367.27 -497.75)"/><circle class="cls-3" cx="124.49" cy="124.67" r="79.85"/><circle class="cls-4" cx="124.49" cy="124.67" r="47.13"/><circle class="cls-5" cx="124.49" cy="124.67" r="24.18"/><circle class="cls-5" cx="124.49" cy="124.67" r="11.69"/></g></svg>