<svg xmlns="http://www.w3.org/2000/svg" viewBox="0 0 665.62 665.62"><defs><style>.cls-1,.cls-3,.cls-4,.cls-5,.cls-6{fill:#fff;}.cls-2{fill:#ed1c24;}.cls-3,.cls-4,.cls-5,.cls-6{stroke:#ed1c24;stroke-miterlimit:10;}.cls-3{stroke-width:43px;}.cls-4{stroke-width:51px;}.cls-5{stroke-width:27px;}.cls-6{stroke-width:44px;}</style></defs><g id="Layer_1" data-name="Layer 1"><circle class="cls-1" cx="332.82" cy="332.81" r="295.34"/><path class="cls-2" d="M500,157.14c-157.83,0-290.4,110.46-324.36,258.15a328.75,328.75,0,0,0-7.82,53.79q-.65,10.37-.64,20.88t.64,20.85c7.71,123.9,83.53,229.67,190.35,280.21A331.15,331.15,0,0,0,500,822.76c183.51,0,332.8-149.3,332.8-332.8S683.52,157.14,500,157.14Zm0,590.68a256.27,256.27,0,0,1-141.83-42.61C288.3,659,242.13,579.79,242.13,490a256.49,256.49,0,0,1,11-74.67C285.25,309.38,383.77,232.08,500,232.08c142.18,0,257.86,115.68,257.86,257.88S642.19,747.82,500,747.82Z" transform="translate(-167.19 -157.14)"/><circle class="cls-3" cx="333.21" cy="333.68" r="213.72"/><circle class="cls-4" cx="333.21" cy="333.68" r="126.14"/><circle class="cls-5" cx="333.21" cy="333.68" r="64.72"/><circle class="cls-6" cx="333.21" cy="333.68" r="31.29"/></g></svg>