<svg id="Layer_1" data-name="Layer 1" xmlns="http://www.w3.org/2000/svg" viewBox="0 0 711.8 181.34"><defs><style>.cls-1{fill:#fff;}.cls-1,.cls-3{stroke:#ed1c24;stroke-miterlimit:10;stroke-width:15px;}.cls-2,.cls-3{fill:#ed1c24;}</style></defs><path d="M325.62,554.77V525.94l-25-21.2h-25l-24.81,21.2v42l24.81,21.19h25l25-21.19h-50V554.77Zm-50-28.83h25v13.57h-25Z" transform="translate(-168.65 -424.47)"/><path d="M445.11,503H395.3v84.36h25V524.22h24.8v63.17h25V524.22Z" transform="translate(-168.65 -424.47)"/><path d="M376.09,584.62H364.86V539.9h25V521.47h-25V472.28h-24.8v49.19h-9.95V539.9h9.95v44.72l24.8,21.19H401.1Z" transform="translate(-168.65 -424.47)"/><path d="M500.11,503l-25,21.19V566l25,21.41h50V503Zm25,63h-25V524.22h25Z" transform="translate(-168.65 -424.47)"/><path class="cls-1" d="M223.78,469.51" transform="translate(-168.65 -424.47)"/><path class="cls-2" d="M259.51,424.47l-63.42,5.16H168.65v63.76l32.45,18.54L234,532l51.81-44.48Zm-53.3,58.89L212.92,455l29.45-2.4,11.37,27.26-22.4,19.25-19.68-12" transform="translate(-168.65 -424.47)"/><polyline class="cls-2" points="7.03 71.72 32.45 87.21 32.41 89.69 32.41 153.28 0 153.28 0 67.21"/><path class="cls-3" d="M207.53,496.54" transform="translate(-168.65 -424.47)"/><path d="M633.22,587.39H580.56l-26.12-22.32V520.88l26.12-22.32h46.86v22.32H580.56v44.19h26.33Z" transform="translate(-168.65 -424.47)"/><path d="M712,565.07l-26.33,22.32H659.34l-26.12-22.32V520.88l26.12-22.32h26.33L712,520.88Zm-26.33,0V520.88H659.34v44.19Z" transform="translate(-168.65 -424.47)"/><path d="M796.15,587.39H743.48l-26.11-22.32V520.66l26.11-22.1h26.34V431.83h26.33Zm-26.33-22.32V520.66H743.48v44.41Z" transform="translate(-168.65 -424.47)"/><path d="M880.44,565.07l-26.33,22.32H827.78l-26.12-22.32V520.88l26.12-22.32h26.33l26.33,22.32v30.35H827.78v13.84Zm-26.33-29.91V520.88H827.78v14.28Z" transform="translate(-168.65 -424.47)"/></svg>